<svg xmlns="http://www.w3.org/2000/svg" viewBox="0 0 47.99 56.35"><defs><style>.cls-1{fill:#093573;}</style></defs><title>Asset 1</title><g id="Layer_2" data-name="Layer 2"><g id="Layer_1-2" data-name="Layer 1"><g id="surface1"><path class="cls-1" d="M24,17.44A10.74,10.74,0,1,0,34.73,28.18,10.75,10.75,0,0,0,24,17.44Zm6.38,8.72-7.69,7.69a1.68,1.68,0,0,1-1.17.48,1.64,1.64,0,0,1-1.17-.48L17.4,30.91a1.65,1.65,0,0,1,2.34-2.34l1.77,1.77L28,23.82a1.65,1.65,0,0,1,2.34,0A1.67,1.67,0,0,1,30.37,26.16Z"/><path class="cls-1" d="M47.93,15.29v0c0-.54,0-1.12,0-1.75a6,6,0,0,0-5.62-5.86C35.78,7.28,30.76,5.17,26.48,1l0,0a3.62,3.62,0,0,0-4.91,0l0,0c-4.29,4.17-9.3,6.28-15.78,6.64A6,6,0,0,0,.11,13.5c0,.63,0,1.2,0,1.75v.1C-.07,22-.23,30.18,2.52,37.64A28.57,28.57,0,0,0,9.33,48.25a35.7,35.7,0,0,0,13.33,7.88,3.29,3.29,0,0,0,.54.14,3.53,3.53,0,0,0,.79.08,3.62,3.62,0,0,0,.8-.08,3.7,3.7,0,0,0,.55-.14,35.63,35.63,0,0,0,13.3-7.89,28.24,28.24,0,0,0,6.81-10.61C48.21,30.15,48.06,21.91,47.93,15.29ZM24,42.22A14,14,0,1,1,38,28.18,14.06,14.06,0,0,1,24,42.22Z"/></g></g></g></svg>