<svg xmlns="http://www.w3.org/2000/svg" viewBox="0 0 60.84 62.34"><defs><style>.cls-1{fill:#083575;}.cls-2{fill:#d3d2d1;stroke:#213059;stroke-miterlimit:10;}</style></defs><title>Asset 1</title><g id="Layer_2" data-name="Layer 2"><g id="Layer_1-2" data-name="Layer 1"><circle class="cls-1" cx="30.42" cy="30.42" r="30.42"/><path class="cls-2" d="M52.55,49.2A11.38,11.38,0,0,0,47.87,47l-8.34-1.67A1.88,1.88,0,0,1,38,43.51V41.59a22,22,0,0,0,1.57-2.8,14.75,14.75,0,0,1,1.34-2.34c1.69-1.7,3.32-3.6,3.83-6.06a5.88,5.88,0,0,0-.54-4.49,33.86,33.86,0,0,0-.65-7.68c-.07-3-.61-4.68-2-6.16a6,6,0,0,0-3.53-1.48,6,6,0,0,1-1.3-.3A13.47,13.47,0,0,0,30.34,8.6c-5,.21-11.17,3.4-13.23,9.08-.63,1.73-.57,4.57-.52,6.85l-.05,1.37a6.09,6.09,0,0,0-.49,4.49c.5,2.46,2.13,4.37,3.85,6.08a17.51,17.51,0,0,1,1.33,2.34,25.47,25.47,0,0,0,1.58,2.79v1.91a1.88,1.88,0,0,1-1.51,1.86L13,47.05A11.21,11.21,0,0,0,8.29,49.2a2,2,0,0,0-.72,1.34A1.92,1.92,0,0,0,8.06,52a30.25,30.25,0,0,0,44.71,0,1.85,1.85,0,0,0,.49-1.43A1.9,1.9,0,0,0,52.55,49.2Z"/></g></g></svg>